<mxfile host="Electron" agent="Mozilla/5.0 (X11; Linux x86_64) AppleWebKit/537.36 (KHTML, like Gecko) draw.io/25.0.2 Chrome/128.0.6613.186 Electron/32.2.5 Safari/537.36" version="25.0.2">
  <diagram name="Page-1" id="MmIHik43HimOuQ7mUpIC">
    <mxGraphModel dx="824" dy="854" grid="1" gridSize="10" guides="1" tooltips="1" connect="1" arrows="1" fold="1" page="1" pageScale="1" pageWidth="850" pageHeight="1100" math="0" shadow="0">
      <root>
        <mxCell id="0" />
        <mxCell id="1" parent="0" />
        <object placeholders="1" c4Name="Клиент" c4Type="Person" c4Description="Возрастной" label="&lt;font style=&quot;font-size: 16px&quot;&gt;&lt;b&gt;%c4Name%&lt;/b&gt;&lt;/font&gt;&lt;div&gt;[%c4Type%]&lt;/div&gt;&lt;br&gt;&lt;div&gt;&lt;font style=&quot;font-size: 11px&quot;&gt;&lt;font color=&quot;#cccccc&quot;&gt;%c4Description%&lt;/font&gt;&lt;/div&gt;" id="OG3AnWUGt1m17AZRA_l--1">
          <mxCell style="html=1;fontSize=11;dashed=0;whiteSpace=wrap;fillColor=#083F75;strokeColor=#06315C;fontColor=#ffffff;shape=mxgraph.c4.person2;align=center;metaEdit=1;points=[[0.5,0,0],[1,0.5,0],[1,0.75,0],[0.75,1,0],[0.5,1,0],[0.25,1,0],[0,0.75,0],[0,0.5,0]];resizable=0;" parent="1" vertex="1">
            <mxGeometry x="1580" y="350" width="200" height="180" as="geometry" />
          </mxCell>
        </object>
        <object placeholders="1" c4Name="АБС" c4Type="Container" c4Technology="Delphi" c4Description="Бэкэнд" label="&lt;font style=&quot;font-size: 16px&quot;&gt;&lt;b&gt;%c4Name%&lt;/b&gt;&lt;/font&gt;&lt;div&gt;[%c4Type%: %c4Technology%]&lt;/div&gt;&lt;br&gt;&lt;div&gt;&lt;font style=&quot;font-size: 11px&quot;&gt;&lt;font color=&quot;#E6E6E6&quot;&gt;%c4Description%&lt;/font&gt;&lt;/div&gt;" id="DwFzjTZeQUpSK4uyvUlI-1">
          <mxCell style="rounded=1;whiteSpace=wrap;html=1;fontSize=11;labelBackgroundColor=none;fillColor=#23A2D9;fontColor=#ffffff;align=center;arcSize=10;strokeColor=#0E7DAD;metaEdit=1;resizable=0;points=[[0.25,0,0],[0.5,0,0],[0.75,0,0],[1,0.25,0],[1,0.5,0],[1,0.75,0],[0.75,1,0],[0.5,1,0],[0.25,1,0],[0,0.75,0],[0,0.5,0],[0,0.25,0]];" parent="1" vertex="1">
            <mxGeometry x="1240" y="430" width="240" height="120" as="geometry" />
          </mxCell>
        </object>
        <object placeholders="1" c4Name="Колл-центр" c4Type="Container" c4Technology="React" c4Description="Фронт-енд ПО обработки звонков" label="&lt;font style=&quot;font-size: 16px&quot;&gt;&lt;b&gt;%c4Name%&lt;/b&gt;&lt;/font&gt;&lt;div&gt;[%c4Type%: %c4Technology%]&lt;/div&gt;&lt;br&gt;&lt;div&gt;&lt;font style=&quot;font-size: 11px&quot;&gt;&lt;font color=&quot;#E6E6E6&quot;&gt;%c4Description%&lt;/font&gt;&lt;/div&gt;" id="DwFzjTZeQUpSK4uyvUlI-4">
          <mxCell style="rounded=1;whiteSpace=wrap;html=1;fontSize=11;labelBackgroundColor=none;fillColor=#23A2D9;fontColor=#ffffff;align=center;arcSize=10;strokeColor=#0E7DAD;metaEdit=1;resizable=0;points=[[0.25,0,0],[0.5,0,0],[0.75,0,0],[1,0.25,0],[1,0.5,0],[1,0.75,0],[0.75,1,0],[0.5,1,0],[0.25,1,0],[0,0.75,0],[0,0.5,0],[0,0.25,0]];" parent="1" vertex="1">
            <mxGeometry x="1810" y="579" width="240" height="120" as="geometry" />
          </mxCell>
        </object>
        <mxCell id="DwFzjTZeQUpSK4uyvUlI-6" style="edgeStyle=orthogonalEdgeStyle;rounded=0;orthogonalLoop=1;jettySize=auto;html=1;entryX=0.995;entryY=0.617;entryDx=0;entryDy=0;entryPerimeter=0;exitX=0;exitY=0.75;exitDx=0;exitDy=0;exitPerimeter=0;" parent="1" source="m_ZAfe7ztz4LcBdeNmlA-1" target="OG3AnWUGt1m17AZRA_l--1" edge="1">
          <mxGeometry relative="1" as="geometry" />
        </mxCell>
        <mxCell id="8X3rWXkJx_iWCUfQab2U-27" value="отзвон после&amp;nbsp;&lt;div&gt;подачи заявки&lt;/div&gt;&lt;div&gt;через сайт&lt;/div&gt;" style="edgeLabel;html=1;align=center;verticalAlign=middle;resizable=0;points=[];" parent="DwFzjTZeQUpSK4uyvUlI-6" vertex="1" connectable="0">
          <mxGeometry x="0.0047" y="-3" relative="1" as="geometry">
            <mxPoint as="offset" />
          </mxGeometry>
        </mxCell>
        <mxCell id="_szsCtnkMlDFXV1zqoDQ-5" value="&lt;font style=&quot;font-size: 24px;&quot;&gt;ДИАГРАММА КОНТЕЙНЕРОВ&lt;/font&gt;" style="text;html=1;align=center;verticalAlign=middle;whiteSpace=wrap;rounded=0;" parent="1" vertex="1">
          <mxGeometry x="1350" y="250" width="500" height="30" as="geometry" />
        </mxCell>
        <mxCell id="_szsCtnkMlDFXV1zqoDQ-7" value="&lt;span style=&quot;font-size: 36px;&quot;&gt;&lt;b&gt;ЗАПРОС СПИСКА СТАВОК&lt;/b&gt;&lt;/span&gt;" style="text;html=1;align=center;verticalAlign=middle;whiteSpace=wrap;rounded=0;" parent="1" vertex="1">
          <mxGeometry x="1350" y="190" width="500" height="30" as="geometry" />
        </mxCell>
        <object placeholders="1" c4Name="Оператор" c4Type="Person" c4Description="Колл-центр" label="&lt;font style=&quot;font-size: 16px&quot;&gt;&lt;b&gt;%c4Name%&lt;/b&gt;&lt;/font&gt;&lt;div&gt;[%c4Type%]&lt;/div&gt;&lt;br&gt;&lt;div&gt;&lt;font style=&quot;font-size: 11px&quot;&gt;&lt;font color=&quot;#cccccc&quot;&gt;%c4Description%&lt;/font&gt;&lt;/div&gt;" id="m_ZAfe7ztz4LcBdeNmlA-1">
          <mxCell style="html=1;fontSize=11;dashed=0;whiteSpace=wrap;fillColor=#083F75;strokeColor=#06315C;fontColor=#ffffff;shape=mxgraph.c4.person2;align=center;metaEdit=1;points=[[0.5,0,0],[1,0.5,0],[1,0.75,0],[0.75,1,0],[0.5,1,0],[0.25,1,0],[0,0.75,0],[0,0.5,0]];resizable=0;" vertex="1" parent="1">
            <mxGeometry x="2090" y="326" width="200" height="180" as="geometry" />
          </mxCell>
        </object>
        <mxCell id="m_ZAfe7ztz4LcBdeNmlA-2" style="edgeStyle=orthogonalEdgeStyle;rounded=0;orthogonalLoop=1;jettySize=auto;html=1;entryX=1;entryY=0.5;entryDx=0;entryDy=0;entryPerimeter=0;exitX=0.5;exitY=1;exitDx=0;exitDy=0;exitPerimeter=0;" edge="1" parent="1" source="m_ZAfe7ztz4LcBdeNmlA-1" target="DwFzjTZeQUpSK4uyvUlI-4">
          <mxGeometry relative="1" as="geometry" />
        </mxCell>
        <mxCell id="m_ZAfe7ztz4LcBdeNmlA-5" style="edgeStyle=orthogonalEdgeStyle;rounded=0;orthogonalLoop=1;jettySize=auto;html=1;" edge="1" parent="1" source="m_ZAfe7ztz4LcBdeNmlA-3" target="m_ZAfe7ztz4LcBdeNmlA-4">
          <mxGeometry relative="1" as="geometry" />
        </mxCell>
        <mxCell id="m_ZAfe7ztz4LcBdeNmlA-9" value="Пересылка" style="edgeLabel;html=1;align=center;verticalAlign=middle;resizable=0;points=[];" vertex="1" connectable="0" parent="m_ZAfe7ztz4LcBdeNmlA-5">
          <mxGeometry x="-0.0667" y="-1" relative="1" as="geometry">
            <mxPoint as="offset" />
          </mxGeometry>
        </mxCell>
        <object placeholders="1" c4Name="SMTP" c4Type="Container" c4Technology="SMTP" c4Description="Банк" label="&lt;font style=&quot;font-size: 16px&quot;&gt;&lt;b&gt;%c4Name%&lt;/b&gt;&lt;/font&gt;&lt;div&gt;[%c4Type%: %c4Technology%]&lt;/div&gt;&lt;br&gt;&lt;div&gt;&lt;font style=&quot;font-size: 11px&quot;&gt;&lt;font color=&quot;#E6E6E6&quot;&gt;%c4Description%&lt;/font&gt;&lt;/div&gt;" id="m_ZAfe7ztz4LcBdeNmlA-3">
          <mxCell style="rounded=1;whiteSpace=wrap;html=1;fontSize=11;labelBackgroundColor=none;fillColor=#23A2D9;fontColor=#ffffff;align=center;arcSize=10;strokeColor=#0E7DAD;metaEdit=1;resizable=0;points=[[0.25,0,0],[0.5,0,0],[0.75,0,0],[1,0.25,0],[1,0.5,0],[1,0.75,0],[0.75,1,0],[0.5,1,0],[0.25,1,0],[0,0.75,0],[0,0.5,0],[0,0.25,0]];" vertex="1" parent="1">
            <mxGeometry x="1240" y="760" width="240" height="120" as="geometry" />
          </mxCell>
        </object>
        <object placeholders="1" c4Name="IMAP" c4Type="Container" c4Technology="IMAP" c4Description="Колл-центр" label="&lt;font style=&quot;font-size: 16px&quot;&gt;&lt;b&gt;%c4Name%&lt;/b&gt;&lt;/font&gt;&lt;div&gt;[%c4Type%: %c4Technology%]&lt;/div&gt;&lt;br&gt;&lt;div&gt;&lt;font style=&quot;font-size: 11px&quot;&gt;&lt;font color=&quot;#E6E6E6&quot;&gt;%c4Description%&lt;/font&gt;&lt;/div&gt;" id="m_ZAfe7ztz4LcBdeNmlA-4">
          <mxCell style="rounded=1;whiteSpace=wrap;html=1;fontSize=11;labelBackgroundColor=none;fillColor=#23A2D9;fontColor=#ffffff;align=center;arcSize=10;strokeColor=#0E7DAD;metaEdit=1;resizable=0;points=[[0.25,0,0],[0.5,0,0],[0.75,0,0],[1,0.25,0],[1,0.5,0],[1,0.75,0],[0.75,1,0],[0.5,1,0],[0.25,1,0],[0,0.75,0],[0,0.5,0],[0,0.25,0]];" vertex="1" parent="1">
            <mxGeometry x="1810" y="760" width="240" height="120" as="geometry" />
          </mxCell>
        </object>
        <mxCell id="m_ZAfe7ztz4LcBdeNmlA-6" style="edgeStyle=orthogonalEdgeStyle;rounded=0;orthogonalLoop=1;jettySize=auto;html=1;entryX=0;entryY=0.5;entryDx=0;entryDy=0;entryPerimeter=0;" edge="1" parent="1" source="m_ZAfe7ztz4LcBdeNmlA-4" target="m_ZAfe7ztz4LcBdeNmlA-11">
          <mxGeometry relative="1" as="geometry" />
        </mxCell>
        <mxCell id="m_ZAfe7ztz4LcBdeNmlA-12" value="&lt;span style=&quot;color: rgba(0, 0, 0, 0); font-family: monospace; font-size: 0px; text-align: start; background-color: rgb(251, 251, 251);&quot;&gt;%3CmxGraphModel%3E%3Croot%3E%3CmxCell%20id%3D%220%22%2F%3E%3CmxCell%20id%3D%221%22%20parent%3D%220%22%2F%3E%3Cobject%20placeholders%3D%221%22%20c4Name%3D%22IMAP%22%20c4Type%3D%22Container%22%20c4Technology%3D%22IMAP%22%20c4Description%3D%22%D0%9A%D0%BE%D0%BB%D0%BB-%D1%86%D0%B5%D0%BD%D1%82%D1%80%22%20label%3D%22%26lt%3Bfont%20style%3D%26quot%3Bfont-size%3A%2016px%26quot%3B%26gt%3B%26lt%3Bb%26gt%3B%25c4Name%25%26lt%3B%2Fb%26gt%3B%26lt%3B%2Ffont%26gt%3B%26lt%3Bdiv%26gt%3B%5B%25c4Type%25%3A%20%25c4Technology%25%5D%26lt%3B%2Fdiv%26gt%3B%26lt%3Bbr%26gt%3B%26lt%3Bdiv%26gt%3B%26lt%3Bfont%20style%3D%26quot%3Bfont-size%3A%2011px%26quot%3B%26gt%3B%26lt%3Bfont%20color%3D%26quot%3B%23E6E6E6%26quot%3B%26gt%3B%25c4Description%25%26lt%3B%2Ffont%26gt%3B%26lt%3B%2Fdiv%26gt%3B%22%20id%3D%222%22%3E%3CmxCell%20style%3D%22rounded%3D1%3BwhiteSpace%3Dwrap%3Bhtml%3D1%3BfontSize%3D11%3BlabelBackgroundColor%3Dnone%3BfillColor%3D%2323A2D9%3BfontColor%3D%23ffffff%3Balign%3Dcenter%3BarcSize%3D10%3BstrokeColor%3D%230E7DAD%3BmetaEdit%3D1%3Bresizable%3D0%3Bpoints%3D%5B%5B0.25%2C0%2C0%5D%2C%5B0.5%2C0%2C0%5D%2C%5B0.75%2C0%2C0%5D%2C%5B1%2C0.25%2C0%5D%2C%5B1%2C0.5%2C0%5D%2C%5B1%2C0.75%2C0%5D%2C%5B0.75%2C1%2C0%5D%2C%5B0.5%2C1%2C0%5D%2C%5B0.25%2C1%2C0%5D%2C%5B0%2C0.75%2C0%5D%2C%5B0%2C0.5%2C0%5D%2C%5B0%2C0.25%2C0%5D%5D%3B%22%20vertex%3D%221%22%20parent%3D%221%22%3E%3CmxGeometry%20x%3D%221810%22%20y%3D%22760%22%20width%3D%22240%22%20height%3D%22120%22%20as%3D%22geometry%22%2F%3E%3C%2FmxCell%3E%3C%2Fobject%3E%3C%2Froot%3E%3C%2FmxGraphModel%3E&lt;/span&gt;" style="edgeLabel;html=1;align=center;verticalAlign=middle;resizable=0;points=[];" vertex="1" connectable="0" parent="m_ZAfe7ztz4LcBdeNmlA-6">
          <mxGeometry x="0.1778" relative="1" as="geometry">
            <mxPoint as="offset" />
          </mxGeometry>
        </mxCell>
        <mxCell id="m_ZAfe7ztz4LcBdeNmlA-13" value="&lt;span style=&quot;color: rgba(0, 0, 0, 0); font-family: monospace; font-size: 0px; text-align: start; background-color: rgb(251, 251, 251);&quot;&gt;%3CmxGraphModel%3E%3Croot%3E%3CmxCell%20id%3D%220%22%2F%3E%3CmxCell%20id%3D%221%22%20parent%3D%220%22%2F%3E%3Cobject%20placeholders%3D%221%22%20c4Name%3D%22IMAP%22%20c4Type%3D%22Container%22%20c4Technology%3D%22IMAP%22%20c4Description%3D%22%D0%9A%D0%BE%D0%BB%D0%BB-%D1%86%D0%B5%D0%BD%D1%82%D1%80%22%20label%3D%22%26lt%3Bfont%20style%3D%26quot%3Bfont-size%3A%2016px%26quot%3B%26gt%3B%26lt%3Bb%26gt%3B%25c4Name%25%26lt%3B%2Fb%26gt%3B%26lt%3B%2Ffont%26gt%3B%26lt%3Bdiv%26gt%3B%5B%25c4Type%25%3A%20%25c4Technology%25%5D%26lt%3B%2Fdiv%26gt%3B%26lt%3Bbr%26gt%3B%26lt%3Bdiv%26gt%3B%26lt%3Bfont%20style%3D%26quot%3Bfont-size%3A%2011px%26quot%3B%26gt%3B%26lt%3Bfont%20color%3D%26quot%3B%23E6E6E6%26quot%3B%26gt%3B%25c4Description%25%26lt%3B%2Ffont%26gt%3B%26lt%3B%2Fdiv%26gt%3B%22%20id%3D%222%22%3E%3CmxCell%20style%3D%22rounded%3D1%3BwhiteSpace%3Dwrap%3Bhtml%3D1%3BfontSize%3D11%3BlabelBackgroundColor%3Dnone%3BfillColor%3D%2323A2D9%3BfontColor%3D%23ffffff%3Balign%3Dcenter%3BarcSize%3D10%3BstrokeColor%3D%230E7DAD%3BmetaEdit%3D1%3Bresizable%3D0%3Bpoints%3D%5B%5B0.25%2C0%2C0%5D%2C%5B0.5%2C0%2C0%5D%2C%5B0.75%2C0%2C0%5D%2C%5B1%2C0.25%2C0%5D%2C%5B1%2C0.5%2C0%5D%2C%5B1%2C0.75%2C0%5D%2C%5B0.75%2C1%2C0%5D%2C%5B0.5%2C1%2C0%5D%2C%5B0.25%2C1%2C0%5D%2C%5B0%2C0.75%2C0%5D%2C%5B0%2C0.5%2C0%5D%2C%5B0%2C0.25%2C0%5D%5D%3B%22%20vertex%3D%221%22%20parent%3D%221%22%3E%3CmxGeometry%20x%3D%221810%22%20y%3D%22760%22%20width%3D%22240%22%20height%3D%22120%22%20as%3D%22geometry%22%2F%3E%3C%2FmxCell%3E%3C%2Fobject%3E%3C%2Froot%3E%3C%2FmxGraphModel%3E&lt;/span&gt;" style="edgeLabel;html=1;align=center;verticalAlign=middle;resizable=0;points=[];" vertex="1" connectable="0" parent="m_ZAfe7ztz4LcBdeNmlA-6">
          <mxGeometry x="0.1778" relative="1" as="geometry">
            <mxPoint as="offset" />
          </mxGeometry>
        </mxCell>
        <mxCell id="m_ZAfe7ztz4LcBdeNmlA-14" value="Скачивание&lt;div&gt;файла со&lt;/div&gt;&lt;div&gt;ставками&lt;/div&gt;" style="edgeLabel;html=1;align=center;verticalAlign=middle;resizable=0;points=[];" vertex="1" connectable="0" parent="m_ZAfe7ztz4LcBdeNmlA-6">
          <mxGeometry x="0.3529" y="-1" relative="1" as="geometry">
            <mxPoint as="offset" />
          </mxGeometry>
        </mxCell>
        <mxCell id="m_ZAfe7ztz4LcBdeNmlA-7" style="edgeStyle=orthogonalEdgeStyle;rounded=0;orthogonalLoop=1;jettySize=auto;html=1;entryX=0.5;entryY=0;entryDx=0;entryDy=0;entryPerimeter=0;" edge="1" parent="1" source="DwFzjTZeQUpSK4uyvUlI-1" target="m_ZAfe7ztz4LcBdeNmlA-3">
          <mxGeometry relative="1" as="geometry" />
        </mxCell>
        <mxCell id="m_ZAfe7ztz4LcBdeNmlA-8" value="Отправка&lt;div&gt;списка ставок&lt;/div&gt;&lt;div&gt;ежедневно&lt;/div&gt;" style="edgeLabel;html=1;align=center;verticalAlign=middle;resizable=0;points=[];" vertex="1" connectable="0" parent="m_ZAfe7ztz4LcBdeNmlA-7">
          <mxGeometry x="0.0952" y="-2" relative="1" as="geometry">
            <mxPoint as="offset" />
          </mxGeometry>
        </mxCell>
        <object placeholders="1" c4Name="Приложение" c4Type="Container" c4Technology="Почтовое" c4Description="Колл-центр" label="&lt;font style=&quot;font-size: 16px&quot;&gt;&lt;b&gt;%c4Name%&lt;/b&gt;&lt;/font&gt;&lt;div&gt;[%c4Type%: %c4Technology%]&lt;/div&gt;&lt;br&gt;&lt;div&gt;&lt;font style=&quot;font-size: 11px&quot;&gt;&lt;font color=&quot;#E6E6E6&quot;&gt;%c4Description%&lt;/font&gt;&lt;/div&gt;" id="m_ZAfe7ztz4LcBdeNmlA-11">
          <mxCell style="rounded=1;whiteSpace=wrap;html=1;fontSize=11;labelBackgroundColor=none;fillColor=#23A2D9;fontColor=#ffffff;align=center;arcSize=10;strokeColor=#0E7DAD;metaEdit=1;resizable=0;points=[[0.25,0,0],[0.5,0,0],[0.75,0,0],[1,0.25,0],[1,0.5,0],[1,0.75,0],[0.75,1,0],[0.5,1,0],[0.25,1,0],[0,0.75,0],[0,0.5,0],[0,0.25,0]];" vertex="1" parent="1">
            <mxGeometry x="2210" y="760" width="240" height="120" as="geometry" />
          </mxCell>
        </object>
        <mxCell id="m_ZAfe7ztz4LcBdeNmlA-15" style="edgeStyle=orthogonalEdgeStyle;rounded=0;orthogonalLoop=1;jettySize=auto;html=1;entryX=0.85;entryY=-0.033;entryDx=0;entryDy=0;entryPerimeter=0;exitX=1;exitY=0.644;exitDx=0;exitDy=0;exitPerimeter=0;" edge="1" parent="1" source="m_ZAfe7ztz4LcBdeNmlA-1" target="m_ZAfe7ztz4LcBdeNmlA-11">
          <mxGeometry relative="1" as="geometry" />
        </mxCell>
      </root>
    </mxGraphModel>
  </diagram>
</mxfile>
